<svg width="26" height="26" viewBox="0 0 26 26" fill="none" xmlns="http://www.w3.org/2000/svg">
<g clip-path="url(#clip0_6757_13328)">
<path d="M11.9167 4.33325H4.33341C3.75878 4.33325 3.20768 4.56153 2.80135 4.96785C2.39502 5.37418 2.16675 5.92528 2.16675 6.49992V21.6666C2.16675 22.2412 2.39502 22.7923 2.80135 23.1987C3.20768 23.605 3.75878 23.8333 4.33341 23.8333H19.5001C20.0747 23.8333 20.6258 23.605 21.0321 23.1987C21.4385 22.7923 21.6667 22.2412 21.6667 21.6666V14.0833" stroke="white" stroke-width="2.5" stroke-linecap="round" stroke-linejoin="round"/>
<path d="M20.0417 2.70825C20.4727 2.27728 21.0573 2.03516 21.6667 2.03516C22.2762 2.03516 22.8608 2.27728 23.2917 2.70825C23.7227 3.13923 23.9648 3.72376 23.9648 4.33325C23.9648 4.94275 23.7227 5.52728 23.2917 5.95825L13.0001 16.2499L8.66675 17.3333L9.75008 12.9999L20.0417 2.70825Z" stroke="white" stroke-width="2.5" stroke-linecap="round" stroke-linejoin="round"/>
</g>
<defs>
<clipPath id="clip0_6757_13328">
<rect width="26" height="26" fill="white"/>
</clipPath>
</defs>
</svg>
