<svg width="26" height="26" viewBox="0 0 26 26" fill="none" xmlns="http://www.w3.org/2000/svg">
<path d="M3.25 6.5H5.41667H22.75" stroke="white" stroke-width="2" stroke-linecap="round" stroke-linejoin="round"/>
<path d="M20.5834 6.50008V21.6667C20.5834 22.2414 20.3551 22.7925 19.9488 23.1988C19.5425 23.6051 18.9914 23.8334 18.4167 23.8334H7.58341C7.00878 23.8334 6.45768 23.6051 6.05135 23.1988C5.64502 22.7925 5.41675 22.2414 5.41675 21.6667V6.50008M8.66675 6.50008V4.33341C8.66675 3.75878 8.89502 3.20768 9.30135 2.80135C9.70768 2.39502 10.2588 2.16675 10.8334 2.16675H15.1667C15.7414 2.16675 16.2925 2.39502 16.6988 2.80135C17.1051 3.20768 17.3334 3.75878 17.3334 4.33341V6.50008" stroke="white" stroke-width="2" stroke-linecap="round" stroke-linejoin="round"/>
<path d="M10.8333 11.9167V18.4167" stroke="white" stroke-width="2" stroke-linecap="round" stroke-linejoin="round"/>
<path d="M15.1667 11.9167V18.4167" stroke="white" stroke-width="2" stroke-linecap="round" stroke-linejoin="round"/>
</svg>
